<?xml version="1.0" encoding="iso-8859-1"?>
<!-- Generator: Adobe Illustrator 19.0.0, SVG Export Plug-In . SVG Version: 6.00 Build 0)  -->
<svg version="1.1" id="Layer_1" xmlns="http://www.w3.org/2000/svg" xmlns:xlink="http://www.w3.org/1999/xlink" x="0px" y="0px"
	 viewBox="0 0 503.467 503.467" style="enable-background:new 0 0 503.467 503.467;" xml:space="preserve">
<g transform="translate(5 1)">
	<path style="fill:#50DD8E;" d="M391.8,310.467c25.6,0,34.133,68.267,34.133,102.4c0,18.773-15.36,34.133-34.133,34.133
		s-34.133-15.36-34.133-34.133C357.667,378.733,366.2,310.467,391.8,310.467L391.8,310.467z"/>
	<path style="fill:#ECF4F7;" d="M494.2,250.733V293.4h-42.667L443,284.867v-25.6h-17.067V242.2h-25.6l-8.533-8.533v-25.6h-25.6
		l-26.453-26.453v-0.853c17.92-9.387,33.28-23.893,41.813-41.813l1.707,0.853L494.2,250.733z"/>
	<polygon style="fill:#F2EDDA;" points="306.467,353.133 306.467,498.2 50.467,498.2 50.467,353.133 161.4,242.2 178.467,225.133 
		195.533,242.2 	"/>
	<g>
		<path style="fill:#FF7474;" d="M239.053,170.52c-21.333-17.067-34.987-44.373-34.987-73.387c0-52.053,41.813-93.867,93.867-93.867
			S391.8,45.08,391.8,97.133c0,15.36-3.413,29.013-10.24,41.813c-9.387,17.92-23.893,33.28-42.667,41.813
			c-12.8,5.973-26.453,9.387-41.813,9.387c-10.24,0-20.48-1.707-29.867-5.12C268.067,185.88,257.827,184.173,239.053,170.52
			 M261.24,96.28c4.267,5.973,11.947,9.387,19.627,9.387c14.507,0,25.6-11.093,25.6-25.6s-11.093-25.6-25.6-25.6
			c-14.507,0-25.6,11.093-25.6,25.6C255.267,86.04,256.973,92.013,261.24,96.28"/>
		<path style="fill:#FF7474;" d="M323.533,242.2v128l-17.067-17.067L195.533,242.2H323.533z M161.4,242.2L50.467,353.133L33.4,370.2
			v-128h51.2v-17.067h34.133V242.2H161.4z"/>
	</g>
	<polygon style="fill:#80D6FA;" points="204.067,447 255.267,447 255.267,378.733 204.067,378.733 	"/>
	<polygon style="fill:#FFD0A1;" points="169.933,438.467 169.933,498.2 101.667,498.2 101.667,378.733 169.933,378.733 	"/>
</g>
<path style="fill:#51565F;" d="M499.2,503.467H4.267C1.707,503.467,0,501.76,0,499.2c0-2.56,1.707-4.267,4.267-4.267H51.2v-102.4
	c0-2.56,1.707-4.267,4.267-4.267c2.56,0,4.267,1.707,4.267,4.267v102.4H102.4v-115.2c0-2.56,1.707-4.267,4.267-4.267h68.267
	c2.56,0,4.267,1.707,4.267,4.267v115.2h128v-102.4c0-2.56,1.707-4.267,4.267-4.267s4.267,1.707,4.267,4.267v102.4h76.8v-42.667
	c-18.773-2.56-34.133-18.773-34.133-38.4c0-29.867,6.827-106.667,38.4-106.667s38.4,76.8,38.4,106.667
	c0,19.627-15.36,35.84-34.133,38.4v42.667H499.2c2.56,0,4.267,1.707,4.267,4.267C503.467,501.76,501.76,503.467,499.2,503.467z
	 M110.933,494.933h59.733v-51.2h-12.8c-2.56,0-4.267-1.707-4.267-4.267c0-2.56,1.707-4.267,4.267-4.267h12.8V384h-59.733V494.933z
	 M396.8,315.733c-19.627,0-29.867,58.027-29.867,98.133c0,16.213,13.653,29.867,29.867,29.867s29.867-13.653,29.867-29.867
	C426.667,373.76,416.427,315.733,396.8,315.733z M260.267,452.267h-51.2c-2.56,0-4.267-1.707-4.267-4.267v-68.267
	c0-2.56,1.707-4.267,4.267-4.267h51.2c2.56,0,4.267,1.707,4.267,4.267V448C264.533,450.56,262.827,452.267,260.267,452.267z
	 M213.333,443.733H256V384h-42.667V443.733z M328.533,375.467c-0.853,0-2.56-0.853-3.413-0.853L183.467,232.96L41.813,374.613
	c-0.853,0.853-3.413,1.707-4.267,0.853c-0.853-0.853-2.56-2.56-2.56-4.267v-128c0-2.56,1.707-4.267,4.267-4.267h46.933v-12.8
	c0-2.56,1.707-4.267,4.267-4.267h34.133c2.56,0,4.267,1.707,4.267,4.267V243.2c0,2.56-1.707,4.267-4.267,4.267
	c-2.56,0-4.267-1.707-4.267-4.267v-12.8h-25.6v12.8c0,2.56-1.707,4.267-4.267,4.267H43.52V360.96l137.387-137.387
	c1.707-1.707,4.267-1.707,5.973,0L324.267,360.96V260.267c0-2.56,1.707-4.267,4.267-4.267s4.267,1.707,4.267,4.267V371.2
	c0,1.707-0.853,3.413-2.56,4.267C329.387,375.467,329.387,375.467,328.533,375.467z M499.2,298.667h-42.667
	c-0.853,0-2.56-0.853-3.413-0.853l-8.533-8.533c-0.853-0.853-0.853-1.707-0.853-3.413v-21.333h-12.8
	c-2.56,0-4.267-1.707-4.267-4.267v-12.8h-21.333c-0.853,0-2.56-0.853-3.413-0.853l-8.533-8.533
	c-0.853-0.853-0.853-1.707-0.853-3.413v-21.333H371.2c-0.853,0-2.56-0.853-3.413-0.853l-3.413-3.413
	c-1.707-1.707-1.707-4.267,0-5.973c1.707-1.707,4.267-1.707,5.973,0l1.707,1.707h23.893c2.56,0,4.267,1.707,4.267,4.267v23.893
	l5.973,5.973h23.893c2.56,0,4.267,1.707,4.267,4.267V256h12.8c2.56,0,4.267,1.707,4.267,4.267v23.893l5.973,5.973h36.693V253.44
	l-87.04-87.04c-1.707-1.707-1.707-4.267,0-5.973s4.267-1.707,5.973,0l88.747,88.747c0.853,0.853,0.853,1.707,0.853,3.413v42.667
	C503.467,296.96,501.76,298.667,499.2,298.667z M268.8,264.533c-18.773,0-29.867-23.893-29.867-64c0-10.24,0-18.773,0.853-27.307
	C217.6,154.453,204.8,126.293,204.8,98.133C204.8,44.373,249.173,0,302.933,0s98.133,44.373,98.133,98.133
	s-44.373,98.133-98.133,98.133c-10.24,0-21.333-1.707-30.72-5.12h-0.853l-23.04-12.8c0,6.827-0.853,14.507-0.853,22.187
	C247.467,233.813,256,256,268.8,256c21.333,0,21.333-38.4,21.333-38.4c0-2.56,1.707-4.267,4.267-4.267s4.267,1.707,4.267,4.267
	C298.667,219.307,298.667,264.533,268.8,264.533z M274.773,183.467c9.387,2.56,18.773,4.267,28.16,4.267
	c49.493,0,89.6-40.107,89.6-89.6s-40.107-89.6-89.6-89.6s-89.6,40.107-89.6,89.6c0,23.893,10.24,47.787,27.307,64.853
	c3.413-32.427,11.947-52.907,19.627-65.707c0,0,0-0.853-0.853-0.853c-4.267-6.827-5.12-15.36-3.413-23.04
	c1.707-7.68,6.827-14.507,13.653-17.92c6.827-4.267,15.36-5.12,23.04-2.56c7.68,1.707,14.507,6.827,17.92,13.653
	c8.533,14.507,3.413,32.427-11.093,40.96c-1.707,0.853-4.267,0.853-5.973-1.707c-0.853-1.707-0.853-4.267,1.707-5.973
	c10.24-5.973,13.653-18.773,7.68-29.013c-2.56-5.12-7.68-8.533-12.8-10.24c-5.12-1.707-11.093-0.853-16.213,2.56
	c-5.12,2.56-8.533,7.68-10.24,12.8c-1.707,5.12-0.853,9.387,0.853,14.507c9.387-11.093,17.92-12.8,18.773-12.8
	c2.56-0.853,4.267,0.853,5.12,3.413c0.853,2.56-0.853,4.267-3.413,5.12c-0.853,0-31.573,8.533-37.547,83.627L274.773,183.467z"/>
<g>
</g>
<g>
</g>
<g>
</g>
<g>
</g>
<g>
</g>
<g>
</g>
<g>
</g>
<g>
</g>
<g>
</g>
<g>
</g>
<g>
</g>
<g>
</g>
<g>
</g>
<g>
</g>
<g>
</g>
</svg>
